<mxfile host="app.diagrams.net" modified="2023-12-22T08:26:16.889Z" agent="Mozilla/5.0 (Windows NT 10.0; Win64; x64) AppleWebKit/537.36 (KHTML, like Gecko) Chrome/120.0.0.0 Safari/537.36 Edg/120.0.0.0" version="22.1.11" etag="6c38A_pbUb4Zmq698m9q" type="github">
  <diagram name="第 1 页" id="kh9tJRVflfqixsKQXmed">
    <mxGraphModel>
      <root>
        <mxCell id="0" />
        <mxCell id="1" parent="0" />
      </root>
    </mxGraphModel>
  </diagram>
</mxfile>
